<svg xmlns="http://www.w3.org/2000/svg" width="23.049" height="28.307" viewBox="0 0 23.049 28.307">
  <g id="Group_1416" data-name="Group 1416" transform="translate(-866 -278)">
    <g id="Group_1415" data-name="Group 1415" transform="translate(866 278)">
      <g id="Group_1414" data-name="Group 1414" transform="translate(0 6.825)">
        <path id="Path_5461" data-name="Path 5461" d="M26.376,28.195a6.407,6.407,0,0,1,3.061-5.387A6.609,6.609,0,0,0,24.258,20c-2.2-.224-4.3,1.3-5.42,1.3S16,20.034,14.168,20.07A6.928,6.928,0,0,0,8.31,23.619c-2.494,4.326-.637,10.744,1.8,14.26,1.191,1.718,2.606,3.653,4.47,3.582,1.8-.071,2.472-1.161,4.638-1.161s2.778,1.161,4.671,1.125c1.929-.038,3.152-1.756,4.333-3.48a15.575,15.575,0,0,0,1.958-4.026,6.243,6.243,0,0,1-3.8-5.722" transform="translate(-7.126 -19.979)" fill="#fff"/>
      </g>
      <path id="Path_5462" data-name="Path 5462" d="M25.962,15.8a6.238,6.238,0,0,0,1.473-4.521,6.345,6.345,0,0,0-4.17,2.147,5.887,5.887,0,0,0-1.5,4.379,5.258,5.258,0,0,0,4.2-2" transform="translate(-10.274 -11.279)" fill="#fff"/>
    </g>
  </g>
</svg>
