<svg xmlns="http://www.w3.org/2000/svg" xmlns:xlink="http://www.w3.org/1999/xlink" width="153.272" height="29.642" viewBox="0 0 153.272 29.642"><defs><clipPath id="a"><rect width="153.272" height="29.642" transform="translate(0 11.765)" fill="#fff"/></clipPath><clipPath id="b"><rect width="153.272" height="29.642" fill="#fff"/></clipPath></defs><g transform="translate(0 -11.765)" clip-path="url(#a)"><g transform="translate(0 11.765)" clip-path="url(#b)"><path d="M32.437,14.247a31.187,31.187,0,0,0-7.9-2.482,23.164,23.164,0,0,0-1.012,2.1,29.007,29.007,0,0,0-8.755,0,22.457,22.457,0,0,0-1.024-2.1A31.084,31.084,0,0,0,5.84,14.253,33.132,33.132,0,0,0,.163,36.438,31.584,31.584,0,0,0,9.852,41.4a24.1,24.1,0,0,0,2.075-3.418A20.4,20.4,0,0,1,8.659,36.4c.274-.2.542-.415.8-.634a22.328,22.328,0,0,0,19.372,0c.262.218.53.431.8.634a20.353,20.353,0,0,1-3.274,1.593,23.99,23.99,0,0,0,2.075,3.418,31.521,31.521,0,0,0,9.695-4.968A33.1,33.1,0,0,0,32.437,14.247ZM12.785,31.972a3.717,3.717,0,0,1-3.442-3.916,3.7,3.7,0,0,1,3.442-3.919,3.674,3.674,0,0,1,3.442,3.919A3.693,3.693,0,0,1,12.785,31.972Zm12.722,0a3.717,3.717,0,0,1-3.442-3.916,3.7,3.7,0,0,1,3.442-3.919,3.674,3.674,0,0,1,3.442,3.919A3.7,3.7,0,0,1,25.507,31.972Z" transform="translate(0 -11.765)" fill="#fff"/><path d="M98.029,26.171h8.222a12,12,0,0,1,5.03.947,6.786,6.786,0,0,1,3.078,2.636,7.33,7.33,0,0,1,1.024,3.867,6.988,6.988,0,0,1-4.313,6.608,12.842,12.842,0,0,1-5.409,1.012H98.029Zm7.547,11.24a4.3,4.3,0,0,0,3.078-1.021,3.668,3.668,0,0,0,1.076-2.79,3.576,3.576,0,0,0-.958-2.615,3.89,3.89,0,0,0-2.9-.981H103.3v7.407Z" transform="translate(-46.573 -18.609)" fill="#fff"/><path d="M151.755,42.957a11.018,11.018,0,0,1-3.078-1.314V38.069a8.426,8.426,0,0,0,2.774,1.347,11.6,11.6,0,0,0,3.364.526,2.549,2.549,0,0,0,1.147-.2c.259-.135.389-.3.389-.486a.736.736,0,0,0-.211-.538,1.8,1.8,0,0,0-.822-.366l-2.53-.581a6.468,6.468,0,0,1-3.087-1.433,3.478,3.478,0,0,1-.114-4.574,5.089,5.089,0,0,1,2.277-1.43,10.642,10.642,0,0,1,3.458-.508,12.778,12.778,0,0,1,3.247.388,8.91,8.91,0,0,1,2.446.99v3.381a8.988,8.988,0,0,0-2.289-.96,10.045,10.045,0,0,0-2.669-.354q-1.983,0-1.982.689a.517.517,0,0,0,.307.483,5,5,0,0,0,1.126.335l2.108.388a6.134,6.134,0,0,1,3.078,1.28,3.457,3.457,0,0,1,1.012,2.7,3.593,3.593,0,0,1-1.674,3.113,8.328,8.328,0,0,1-4.756,1.154A13.837,13.837,0,0,1,151.755,42.957Z" transform="translate(-70.636 -20.343)" fill="#fff"/><path d="M179.68,42.507a6.359,6.359,0,0,1-2.728-2.455,6.749,6.749,0,0,1-.915-3.488,6.227,6.227,0,0,1,3.732-5.866,10.129,10.129,0,0,1,4.385-.871,9.45,9.45,0,0,1,5.25,1.357v3.941a6.519,6.519,0,0,0-1.717-.84,6.663,6.663,0,0,0-2.1-.323,5.505,5.505,0,0,0-3.066.732,2.214,2.214,0,0,0-1.108,1.916,2.241,2.241,0,0,0,1.075,1.907,5.47,5.47,0,0,0,3.12.744,7.164,7.164,0,0,0,2.078-.311,7.651,7.651,0,0,0,1.759-.766V42a10.074,10.074,0,0,1-5.376,1.421A9.827,9.827,0,0,1,179.68,42.507Z" transform="translate(-83.634 -20.346)" fill="#fff"/><path d="M208.13,42.5a6.476,6.476,0,0,1-3.744-5.986,6.322,6.322,0,0,1,.961-3.458,6.469,6.469,0,0,1,2.774-2.381,11.273,11.273,0,0,1,8.644,0,6.17,6.17,0,0,1,3.711,5.835,6.662,6.662,0,0,1-.949,3.51,6.516,6.516,0,0,1-2.774,2.476,10.745,10.745,0,0,1-8.623,0Zm6.406-3.821a2.841,2.841,0,0,0,.771-2.076,2.755,2.755,0,0,0-.771-2.055,2.837,2.837,0,0,0-2.1-.766,2.876,2.876,0,0,0-2.121.766,2.771,2.771,0,0,0-.768,2.055,2.681,2.681,0,0,0,2.889,2.864A2.812,2.812,0,0,0,214.536,38.681Z" transform="translate(-97.103 -20.341)" fill="#fff"/><path d="M249.438,30.872v4.651a3.669,3.669,0,0,0-2.087-.538,3.25,3.25,0,0,0-2.594,1.043,4.856,4.856,0,0,0-.907,3.242v3.962h-5.165v-12.6h5.06V34.64a6.711,6.711,0,0,1,1.361-3.242,3.1,3.1,0,0,1,2.412-1.043A3.47,3.47,0,0,1,249.438,30.872Z" transform="translate(-113.398 -20.597)" fill="#fff"/><path d="M277.167,25.35v15.5H272V38.033a4.993,4.993,0,0,1-1.99,2.424,6.177,6.177,0,0,1-3.3.828,5.372,5.372,0,0,1-3.057-.871,5.71,5.71,0,0,1-2.015-2.39,8.066,8.066,0,0,1-.708-3.436,7.756,7.756,0,0,1,.75-3.553,5.793,5.793,0,0,1,5.367-3.338A4.841,4.841,0,0,1,272,30.97V25.35Zm-5.936,11.123a2.742,2.742,0,0,0,.789-2.033,2.625,2.625,0,0,0-.768-1.96,3.259,3.259,0,0,0-4.184.012,2.659,2.659,0,0,0-.78,1.99,2.7,2.7,0,0,0,.78,2,2.8,2.8,0,0,0,2.066.775A2.862,2.862,0,0,0,271.231,36.474Z" transform="translate(-123.966 -18.219)" fill="#fff"/><path d="M137.051,29.167a2.371,2.371,0,1,0-2.575-2.362A2.476,2.476,0,0,0,137.051,29.167Z" transform="translate(-63.889 -17.787)" fill="#fff"/><path d="M134.472,36.543a6.487,6.487,0,0,0,5.15,0v9.7h-5.15Z" transform="translate(-63.887 -23.537)" fill="#fff"/></g></g></svg>