<svg xmlns="http://www.w3.org/2000/svg" width="23" height="23.445" viewBox="0 0 23 23.445">
  <path id="logo-google-svgrepo-com" d="M59.114,41.916l-.118-.5H48.088v4.617h6.517a6.523,6.523,0,0,1-6.381,4.9,7.635,7.635,0,0,1-5.135-2.047A7.331,7.331,0,0,1,40.9,43.714a7.571,7.571,0,0,1,2.146-5.169,7.29,7.29,0,0,1,5.1-2,6.656,6.656,0,0,1,4.34,1.691l3.281-3.263A11.6,11.6,0,0,0,48.043,32h0A11.572,11.572,0,0,0,36.25,43.722a11.768,11.768,0,0,0,3.208,8.143,12.235,12.235,0,0,0,8.822,3.58,10.883,10.883,0,0,0,7.926-3.331,11.7,11.7,0,0,0,3.044-8.106A13.446,13.446,0,0,0,59.114,41.916Z" transform="translate(-36.25 -32)" fill="#fff"/>
</svg>
