<svg width="86" height="100" viewBox="0 0 86 100" fill="none" xmlns="http://www.w3.org/2000/svg">
<path d="M85.9664 25.6247L43.0629 0.861816L0.173 25.6247V25.6517L0.11908 25.6112V75.1505L42.7932 99.7515L43.0764 99.9133L85.9664 75.1505V25.6112V25.6247ZM40.0957 93.5608C39.5832 93.7766 39.0977 94.0598 38.6526 94.397L7.55057 76.4453C7.91473 73.2083 6.12096 70.1062 3.14025 68.7979V32.8809C3.65277 32.6651 4.13832 32.3819 4.58341 32.0447L35.6854 49.9965C35.3212 53.2334 37.115 56.322 40.0957 57.6303V93.5473V93.5608ZM38.6391 44.8442L7.52365 26.8925C7.59109 26.3395 7.59109 25.7866 7.52365 25.2336L38.6391 7.26833C41.2557 9.19703 44.8433 9.19703 47.4598 7.26833L78.5618 25.2201C78.4944 25.7731 78.4944 26.3261 78.5618 26.879L47.4598 44.8308C44.8433 42.9021 41.2557 42.9021 38.6391 44.8308M82.9991 68.5821C80.0184 69.8904 78.2246 72.979 78.5888 76.2295L47.4868 94.1812C47.0418 93.8575 46.5562 93.5742 46.0437 93.345L46.0032 57.6303C48.9839 56.322 50.7777 53.2334 50.4136 49.9965L81.5425 31.8424C81.9876 32.1661 82.4732 32.4493 82.9857 32.6786V68.5956L82.9991 68.5821Z" fill="black"/>
</svg>
