<svg width="144" height="89" viewBox="0 0 144 89" fill="none" xmlns="http://www.w3.org/2000/svg">
<path d="M87.5691 87.1291L90.5094 85.2543C86.5036 79.2929 78.047 77.4586 78.0335 69.2313L68.5924 68.3276L71.8563 66.3315C71.2898 66.0618 70.9661 65.7785 70.6424 65.765C58.6926 65.4413 47.5925 69.3527 36.4384 72.792C28.9529 75.0983 21.6966 78.16 14.1842 80.4124C9.82772 81.7206 5.18804 82.0713 0.683249 82.8536L0.211182 81.7476L4.83739 77.7418L2.00503 76.8382L44.1397 55.056C44.1397 54.8402 44.1397 54.6379 44.1262 54.4221H37.1532C37.3151 53.6668 37.2881 53.3027 37.4364 53.2083C54.8082 42.2969 71.9372 30.9945 89.6732 20.7171C97.6442 16.1044 105.602 11.8019 112.71 5.77304C121.787 -1.90129 127.694 -1.37527 136.906 6.27209C139.118 8.10638 141.289 9.96764 143.906 12.1931C143.218 12.5437 142.517 12.8539 141.802 13.1237C133.966 15.0389 127.91 21.2836 126.238 29.1737C122.839 42.7285 113.964 51.1851 101.475 56.4992C98.44 57.8209 95.5267 59.372 92.7213 61.1254C86.3418 65.0637 85.0739 72.0367 90.2396 77.5126C93.2608 80.7091 97.3205 82.9345 100.962 85.5511C102.028 86.1445 102.972 86.9403 103.741 87.8979C101.07 87.6686 98.3995 87.237 95.729 87.264C93.1529 87.2774 90.5633 87.736 87.9873 88.0058C87.8524 87.7225 87.704 87.4258 87.5691 87.1426" fill="black"/>
</svg>
