<svg xmlns="http://www.w3.org/2000/svg" width="25.632" height="23.639" viewBox="0 0 25.632 23.639">
  <g id="Group_1420" data-name="Group 1420" transform="translate(0 -31.119)">
    <g id="Group_1420-2" data-name="Group 1420" transform="translate(0 31.119)">
      <path id="Path_5463" data-name="Path 5463" d="M555.291,270.27a.806.806,0,0,0-.748-.851h-7.352v1.7h5.818l-3.816,3.144-2-1.64v2.158l1.57,1.273a.684.684,0,0,0,.869,0l4.165-3.376v4.5h-6.6v1.7h7.352a.805.805,0,0,0,.748-.851v-7c0-.02,0-.039,0-.06s0-.041,0-.059Z" transform="translate(-529.659 -261.784)" fill="#fff"/>
      <path id="Path_5464" data-name="Path 5464" d="M195.026,296.6c1.074,0,1.762-1.415,1.762-3.526,0-1.751-.509-3.526-1.762-3.526-1.326,0-1.816,1.8-1.816,3.526C193.21,295.087,193.845,296.6,195.026,296.6Z" transform="translate(-187.02 -281.266)" fill="#fff"/>
      <path id="Path_5465" data-name="Path 5465" d="M0,53.587l15.957,1.171V31.119L0,32.523ZM8.08,36.808c2.725,0,4.542,2.47,4.542,6,0,4.293-2.309,6.261-4.688,6.261-2.6,0-4.6-2.254-4.6-6.043S5.228,36.808,8.08,36.808Z" transform="translate(0 -31.119)" fill="#fff"/>
    </g>
  </g>
</svg>
