<svg width="128" height="34" viewBox="0 0 128 34" fill="none" xmlns="http://www.w3.org/2000/svg">
<path d="M7.33592 4.81714C7.28197 6.79979 5.62303 8.36431 3.64038 8.29687C1.65773 8.22943 0.0931721 6.58398 0.160609 4.60134C0.214559 2.67264 1.79254 1.12158 3.73472 1.12158C5.74435 1.14856 7.36289 2.79403 7.33592 4.81714Z" fill="black"/>
<path d="M7.38981 17.4551C7.33586 19.4377 5.67693 21.0023 3.69428 20.9348C1.71163 20.8674 0.147066 19.2219 0.214503 17.2393C0.268453 15.3106 1.84651 13.7595 3.7887 13.7595C5.79832 13.7865 7.41679 15.432 7.38981 17.4551Z" fill="black"/>
<path d="M7.44375 30.0791C7.3898 32.0618 5.73086 33.6263 3.74821 33.5589C1.76556 33.4914 0.201082 31.8459 0.268519 29.8633C0.322469 27.9346 1.90045 26.3835 3.84263 26.3835C5.85226 26.4105 7.47072 28.056 7.44375 30.0791Z" fill="black"/>
<path d="M19.9061 17.4009C19.8521 19.3835 18.1932 20.948 16.2106 20.8806C14.2279 20.8132 12.6634 19.1677 12.7309 17.1851C12.7848 15.2564 14.3628 13.7053 16.305 13.7053C18.3146 13.7323 19.9331 15.3777 19.9061 17.4009Z" fill="black"/>
<path d="M19.8657 4.76343C19.8118 6.74608 18.1528 8.31062 16.1701 8.24318C14.1875 8.17574 12.6229 6.53027 12.6903 4.54762C12.7443 2.61893 14.3223 1.06787 16.2645 1.06787C18.2742 1.09485 19.8927 2.74032 19.8657 4.76343Z" fill="black"/>
<path d="M32.4224 17.3469C32.3685 19.3296 30.7096 20.8941 28.7269 20.8267C26.7443 20.7592 25.1798 19.1138 25.2472 17.1311C25.3012 15.2024 26.8791 13.6514 28.8212 13.6514C30.8309 13.6783 32.4494 15.3238 32.4224 17.3469Z" fill="black"/>
<path d="M32.3819 4.70947C32.328 6.69212 30.669 8.25666 28.6864 8.18923C26.7037 8.12179 25.1393 6.47632 25.2067 4.49367C25.2606 2.56497 26.8387 1.01392 28.7809 1.01392C30.7905 1.04089 32.4089 2.68636 32.3819 4.70947Z" fill="black"/>
<path d="M32.4764 29.9714C32.4225 31.9541 30.7636 33.5186 28.7809 33.4512C26.7983 33.3838 25.2336 31.7383 25.3011 29.7556C25.355 27.8269 26.9331 26.2759 28.8752 26.2759C30.8849 26.3029 32.5034 27.9483 32.4764 29.9714Z" fill="black"/>
<path d="M19.9601 30.0388C19.9061 32.0215 18.2472 33.5725 16.2645 33.5186C14.2819 33.4646 12.7308 31.8057 12.7848 29.823C12.8387 27.8943 14.4168 26.3567 16.3589 26.3433C18.3686 26.3702 19.987 28.0157 19.9601 30.0388Z" fill="black"/>
<path d="M59.802 20.2063L66.2893 33.4644L60.8538 33.4914L54.5553 20.6514L47.4474 20.6784L47.5015 33.5453H42.8752L42.7404 1.04071L56.5379 0.986752C62.0273 0.959777 66.667 3.96747 66.694 10.6572C66.721 15.8634 64.0775 19.0734 59.8155 20.2063M56.5649 5.58596L47.3934 5.62642L47.4339 16.0792L56.6054 16.0387C59.748 16.0387 61.9464 14.3393 61.9329 10.8056C62.1352 8.1081 60.1121 5.76131 57.4147 5.57248C57.1314 5.54551 56.8482 5.55899 56.5649 5.57248" fill="black"/>
<path d="M85.8866 33.896C77.7537 33.9364 72.5475 27.0309 72.5071 17.1716C72.4666 7.31227 77.6054 0.37975 85.7383 0.339288C93.9252 0.298826 99.1177 7.20437 99.1582 17.0637C99.1987 26.923 94.06 33.8555 85.8731 33.896M85.7518 5.23522C80.2624 5.2622 77.2682 9.87489 77.3087 17.1581C77.3491 24.4413 80.3703 29.0405 85.8596 29.0135C91.3895 28.9865 94.3837 24.3738 94.3568 17.0906C94.3298 9.80745 91.2951 5.20825 85.7653 5.23522" fill="black"/>
<path d="M115.478 33.7748C111.148 33.8153 107.021 31.9 104.256 28.5686L107.615 25.1563C109.705 27.5166 112.672 28.8924 115.815 28.9733C120.225 28.9598 122.33 27.3683 122.316 24.2122C122.316 21.7036 120.455 20.4627 115.195 18.8577C108.532 16.8346 105.335 15.1352 105.308 9.32213C105.281 3.69789 109.854 0.245111 115.653 0.218136C119.551 0.164187 123.301 1.7422 125.971 4.58804L122.667 8.0813C120.805 6.01772 118.108 4.88477 115.33 4.99267C111.647 5.00616 110.069 6.86743 110.083 9.05239C110.083 11.3318 111.54 12.4377 116.988 14.0832C123.206 16.0119 127.077 18.035 127.104 23.8481C127.131 29.7016 123.543 33.7074 115.505 33.7478" fill="black"/>
</svg>
