<svg width="107" height="123" viewBox="0 0 107 123" fill="none" xmlns="http://www.w3.org/2000/svg">
<path d="M53.3332 119.682V121.179L51.7282 122.096L52.0115 122.258L53.3197 121.503V122.986L106.568 92.2349V88.917L53.3197 119.668L53.3332 119.682Z" fill="black"/>
<path d="M53.3332 111.077L42.9884 117.052L43.5009 117.335L53.3467 111.657V112.911L106.595 82.1601V79.085L53.3467 109.836V111.077H53.3332Z" fill="black"/>
<path d="M53.3332 100.975L34.2351 112.008L34.9634 112.426L53.3332 101.811V102.809L106.582 72.0579V69.2256L53.3332 99.9769V100.975Z" fill="black"/>
<path d="M106.582 30.7325L105.799 30.2874L63.1521 54.9019L57.6222 51.7054L70.5837 44.2064V42.3316L98.6509 26.1333L97.2752 25.351L70.5837 40.7536V39.1621L53.2523 49.1563L47.237 45.7035L89.8976 21.1025L88.7647 20.4146L46.1175 45.0426L40.3044 41.6842L49.7591 36.2219L47.9923 35.1968L81.1847 16.0312L80.2406 15.4917L47.0616 34.6573L45.3757 33.6862L35.8805 39.1621V41.1178L26.9924 46.243L26.3449 45.8653L0.0444641 61.0522V63.6418L28.5974 47.1466L27.9499 46.769L35.8805 42.1698V44.1794L41.7341 47.5513L35.5433 51.1254L35.1117 50.8827L0.0444641 71.1272V73.4606L37.1214 52.0426L36.6898 51.7863L42.8805 48.2122L48.8554 51.6649L35.8805 59.1909V60.5531L0.0444641 81.2428V83.3334L35.8805 62.6302V64.2217L41.4373 67.4317L0.0444641 91.3314V92.2351L0.853758 92.7071L43.0423 68.3758L48.8015 71.6937L35.8805 79.0713V80.7573L8.01557 96.8477L9.39131 97.63L35.8671 82.3218V84.2775L53.2658 74.2563L58.5124 77.264L53.3602 80.2312V80.7438L16.7689 101.879L17.9288 102.553L53.3602 82.0925V82.5915L60.5355 78.4509L66.2272 81.7419L56.9344 87.0964L57.7571 87.5684L53.3602 90.104V90.8593L25.5222 106.923L26.4663 107.462L53.3602 91.9383V92.7206L59.9825 88.8902L61.3178 89.659L70.5972 84.291V82.7399L106.608 61.9558V59.3797L70.5972 80.1638V79.2197L64.9054 75.9288L106.595 51.8538V49.5204L62.8823 74.7554L57.6357 71.7477L70.5972 64.2622V62.5493L106.608 41.7652V39.6881L70.5972 60.4452V59.1774L64.7706 55.8056L106.608 31.6496V30.7325H106.582ZM40.2639 61.7265L53.2388 54.2275L58.7687 57.4241L52.5914 60.9847L45.8073 64.8961L40.2639 61.713V61.7265ZM66.1868 61.7265L53.1579 69.1716L47.3853 65.8402L53.3467 62.4009L60.3467 58.3682L66.1868 61.7265Z" fill="black"/>
<path d="M19.1427 41.7382L72.3909 10.987L71.6761 10.5688L18.4278 41.3201L17.5647 40.8211L0.0310364 50.9501V53.796L20.0328 42.2508L19.1562 41.7517L19.1427 41.7382Z" fill="black"/>
<path d="M10.3893 36.6937L63.6511 5.94246L63.1386 5.64575L9.87681 36.397L8.79783 35.7766L0.0175171 40.8479V43.9365L11.4683 37.3277L10.3758 36.6937H10.3893Z" fill="black"/>
<path d="M1.62248 31.6498L54.8977 0.884987L54.6145 0.723145L1.32571 31.4879L0.0309753 30.7461V34.091L2.94422 32.4051L1.6494 31.6633L1.62248 31.6498Z" fill="black"/>
</svg>
