<svg xmlns="http://www.w3.org/2000/svg" xmlns:xlink="http://www.w3.org/1999/xlink" width="141.918" height="152.562" viewBox="0 0 141.918 152.562"><defs><clipPath id="a"><rect width="141.918" height="152.562" fill="none"/></clipPath></defs><g clip-path="url(#a)"><path d="M76.272,1.491a64.646,64.646,0,1,0,64.62,64.646A64.706,64.706,0,0,0,76.272,1.491" transform="translate(-4.832 -0.618)" fill="#fff"/><path d="M76.116,130.847a64.865,64.865,0,1,1,64.84-64.865,64.927,64.927,0,0,1-64.84,64.865m0-129.291a64.426,64.426,0,1,0,64.4,64.426,64.487,64.487,0,0,0-64.4-64.426" transform="translate(-4.676 -0.463)"/><path d="M78,130.069a62.2,62.2,0,1,1,62.18-62.2A62.263,62.263,0,0,1,78,130.069M78,6.49a61.375,61.375,0,1,0,61.351,61.375A61.433,61.433,0,0,0,78,6.49" transform="translate(-6.561 -2.346)" fill="#061728"/><path d="M75.653,131.037a65.519,65.519,0,1,1,65.494-65.519,65.581,65.581,0,0,1-65.494,65.519m0-130.164a64.646,64.646,0,1,0,64.62,64.646A64.706,64.706,0,0,0,75.653.873" transform="translate(-4.213 0)" fill="#061728"/><path d="M150.519,106.736a.415.415,0,0,1-.359-.206L122.909,59.663a.414.414,0,1,1,.716-.417l27.251,46.867a.415.415,0,0,1-.358.623" transform="translate(-50.949 -24.471)" fill="#061728"/><path d="M129.491,143.071h-54.2a.415.415,0,0,1,0-.829h54.2a.415.415,0,0,1,0,.829" transform="translate(-31.053 -58.958)" fill="#061728"/><path d="M73.257,106.681a.414.414,0,0,1-.358-.623l27.218-46.812a.415.415,0,1,1,.716.417L73.615,106.475a.415.415,0,0,1-.359.206" transform="translate(-30.209 -24.471)" fill="#061728"/><path d="M125.666,110.948H97.177a.414.414,0,0,1-.358-.623l14.244-24.5a.431.431,0,0,1,.716,0l14.244,24.5a.414.414,0,0,1-.358.623M97.9,110.118h27.047L111.422,86.86Z" transform="translate(-40.129 -35.495)" fill="#061728"/><path d="M125.665,123.024H97.177a.414.414,0,0,1-.191-.782l14.244-7.423a.417.417,0,0,1,.383,0l14.244,7.423a.414.414,0,0,1-.191.782m-26.8-.829h25.1l-12.551-6.541Z" transform="translate(-40.129 -47.572)" fill="#061728"/><path d="M70.129,143.685a2.514,2.514,0,1,1,2.513-2.515,2.517,2.517,0,0,1-2.513,2.515m0-4.2a1.685,1.685,0,1,0,1.684,1.685,1.687,1.687,0,0,0-1.684-1.685" transform="translate(-28.041 -57.472)" fill="#061728"/><path d="M170.177,143.685a2.514,2.514,0,1,1,2.513-2.515,2.517,2.517,0,0,1-2.513,2.515m0-4.2a1.685,1.685,0,1,0,1.684,1.685,1.687,1.687,0,0,0-1.684-1.685" transform="translate(-69.532 -57.472)" fill="#061728"/><path d="M120.027,57.469a2.512,2.512,0,1,1,1.269-.344,2.516,2.516,0,0,1-1.269.344m0-4.2a1.686,1.686,0,1,0,1.684,1.685,1.687,1.687,0,0,0-1.684-1.685" transform="translate(-48.735 -21.736)" fill="#061728"/><path d="M121.52,103.614a.414.414,0,0,1-.414-.415V86.227a.414.414,0,1,1,.829,0V103.2a.414.414,0,0,1-.414.415" transform="translate(-50.224 -35.568)" fill="#061728"/><path d="M35.128,94.466a3.661,3.661,0,0,0-.131.591,1.62,1.62,0,0,0,.788,1.769l5.048.714-.172,1.216L33.55,97.75l.168-1.183.824.1a1.912,1.912,0,0,1-.713-1.831A1.26,1.26,0,0,1,34,94.306Z" transform="translate(-13.914 -39.089)" fill="#061728"/><path d="M42.554,76.575A4.252,4.252,0,0,1,41,75.406a3.1,3.1,0,0,1-.7-1.593,3.145,3.145,0,0,1,.287-1.727A3.028,3.028,0,0,1,42.5,70.352a3.905,3.905,0,0,1,2.834.3l.078.036a4.265,4.265,0,0,1,1.543,1.149,3.054,3.054,0,0,1,.7,1.585,3.181,3.181,0,0,1-.293,1.754,3.023,3.023,0,0,1-1.909,1.729,3.888,3.888,0,0,1-2.821-.3Zm.647-1.062a3.069,3.069,0,0,0,1.975.3A1.879,1.879,0,0,0,46.4,73.1a3.361,3.361,0,0,0-1.638-1.357,3.064,3.064,0,0,0-1.975-.287,1.866,1.866,0,0,0-1.241,2.685,3.342,3.342,0,0,0,1.651,1.37" transform="translate(-16.703 -29.1)" fill="#061728"/><path d="M58.763,49.182a4.273,4.273,0,0,1,1.417,2.36,2.417,2.417,0,0,1-.656,2.168,2.5,2.5,0,0,1-2.139.881l.565.611-.77.825-7.451-6.961.838-.9,2.78,2.6a2.492,2.492,0,0,1,.725-2.129,2.432,2.432,0,0,1,2.126-.827,4.4,4.4,0,0,1,2.489,1.3Zm-.94.8a3.311,3.311,0,0,0-1.747-.969,1.6,1.6,0,0,0-1.451.553,1.805,1.805,0,0,0-.367,2.047l2.27,2.12a1.853,1.853,0,0,0,2.026-.515,1.6,1.6,0,0,0,.438-1.472,3.528,3.528,0,0,0-1.169-1.764" transform="translate(-20.623 -19.809)" fill="#061728"/><path d="M76.929,36.732a4.249,4.249,0,0,1-.543-1.867,3.1,3.1,0,0,1,.393-1.7,3.137,3.137,0,0,1,1.265-1.21,3.028,3.028,0,0,1,2.569-.243A3.909,3.909,0,0,1,82.7,33.658l.041.076a4.276,4.276,0,0,1,.547,1.845,3.053,3.053,0,0,1-.389,1.69A3.187,3.187,0,0,1,81.616,38.5a3.023,3.023,0,0,1-2.564.239,3.887,3.887,0,0,1-2.081-1.929Zm1.155-.462a3.077,3.077,0,0,0,1.4,1.42,1.878,1.878,0,0,0,2.6-1.429,3.366,3.366,0,0,0-.5-2.069,3.073,3.073,0,0,0-1.408-1.415,1.784,1.784,0,0,0-1.66.069,1.763,1.763,0,0,0-.942,1.337,3.335,3.335,0,0,0,.5,2.087" transform="translate(-31.677 -13.071)" fill="#061728"/><path d="M102.508,23.163l.2.882a2.615,2.615,0,0,1,1.937-1.4q2.241-.4,2.709,2.129l.83,4.675-1.21.215-.83-4.682a1.656,1.656,0,0,0-.55-1.069,1.425,1.425,0,0,0-1.133-.177,1.775,1.775,0,0,0-.977.5,2.169,2.169,0,0,0-.546.947l.894,5.041-1.209.215-1.255-7.075Z" transform="translate(-42.037 -9.366)" fill="#061728"/><path d="M127.986,25.514a4.231,4.231,0,0,1,.682-1.82A3.082,3.082,0,0,1,130,22.57a3.139,3.139,0,0,1,1.737-.213,3.029,3.029,0,0,1,2.2,1.344,3.913,3.913,0,0,1,.512,2.8l-.013.085a4.278,4.278,0,0,1-.665,1.806,3.045,3.045,0,0,1-1.322,1.121,3.184,3.184,0,0,1-1.765.216,3.018,3.018,0,0,1-2.2-1.343,3.886,3.886,0,0,1-.514-2.791Zm1.2.32a3.076,3.076,0,0,0,.275,1.978,1.878,1.878,0,0,0,2.941.414,3.366,3.366,0,0,0,.839-1.956,3.072,3.072,0,0,0-.283-1.976,1.784,1.784,0,0,0-1.37-.939,1.764,1.764,0,0,0-1.555.508,3.335,3.335,0,0,0-.847,1.971" transform="translate(-53.048 -9.251)" fill="#061728"/><path d="M156.143,29.4l-.361.711a2.654,2.654,0,0,1,2.312.235,2.056,2.056,0,0,1,1.221,2.012,2.673,2.673,0,0,1,2.562.117q2.06,1.158.867,3.36l-2.359,4.2-1.07-.6,2.324-4.132a1.657,1.657,0,0,0,.258-1.177,1.553,1.553,0,0,0-.843-.912,1.624,1.624,0,0,0-1.189-.2,1.651,1.651,0,0,0-1,.7l-2.336,4.155-1.076-.605,2.307-4.1a1.371,1.371,0,0,0-.568-2.118,1.641,1.641,0,0,0-1.944.086l-2.571,4.572-1.07-.6,3.522-6.263Z" transform="translate(-62.874 -11.949)" fill="#061728"/><path d="M178.306,54.528l-.827-.908,5.307-4.84.827.908Zm5.821-7.105a.728.728,0,0,1,.5-.2.684.684,0,0,1,.517.261.7.7,0,0,1,.215.54.727.727,0,0,1-.248.478.7.7,0,0,1-.493.2.708.708,0,0,1-.514-.268.694.694,0,0,1-.217-.534.705.705,0,0,1,.245-.47" transform="translate(-73.603 -19.571)" fill="#061728"/><path d="M190.487,72.254a1.765,1.765,0,0,0,.874.844,1.4,1.4,0,0,0,1.135.034l.526,1.036a2.232,2.232,0,0,1-1.24.154,2.8,2.8,0,0,1-1.267-.53,3.009,3.009,0,0,1-.922-1.084,2.958,2.958,0,0,1-.184-2.524,3.9,3.9,0,0,1,2-1.986l.183-.093a4.32,4.32,0,0,1,1.838-.5,2.93,2.93,0,0,1,1.631.412,3.142,3.142,0,0,1,1.174,1.314,2.885,2.885,0,0,1,.265,2.118,2.59,2.59,0,0,1-1.289,1.612l-.526-1.036a1.694,1.694,0,0,0,.781-.99,1.644,1.644,0,0,0-.13-1.248,1.72,1.72,0,0,0-1.257-.988,3.163,3.163,0,0,0-1.97.423l-.208.106a3.1,3.1,0,0,0-1.473,1.322,1.724,1.724,0,0,0,.064,1.606" transform="translate(-78.467 -28.02)" fill="#061728"/><path d="M199.153,97.007a.906.906,0,0,0,.7-.493,3.612,3.612,0,0,0,.26-1.367,6.219,6.219,0,0,1,.237-1.538,2.1,2.1,0,0,1,.527-.905,1.585,1.585,0,0,1,.862-.405,1.865,1.865,0,0,1,1.594.5,2.921,2.921,0,0,1,.906,1.788,3,3,0,0,1-.308,2.057,2,2,0,0,1-1.471,1.007l-.2-1.22a1.108,1.108,0,0,0,.791-.561,1.6,1.6,0,0,0,.189-1.122,1.676,1.676,0,0,0-.455-.99.916.916,0,0,0-.814-.252.745.745,0,0,0-.606.454,4.356,4.356,0,0,0-.224,1.324,6.643,6.643,0,0,1-.248,1.55,2.172,2.172,0,0,1-.544.945,1.693,1.693,0,0,1-.923.428,1.839,1.839,0,0,1-1.645-.515,3.23,3.23,0,0,1-.891-1.882,3.6,3.6,0,0,1,.059-1.556,2.479,2.479,0,0,1,.677-1.162,2.06,2.06,0,0,1,1.11-.559l.195,1.213a1.272,1.272,0,0,0-.888.643,1.918,1.918,0,0,0-.163,1.261,1.98,1.98,0,0,0,.456,1.06.864.864,0,0,0,.811.3" transform="translate(-81.632 -38.247)" fill="#061728"/><path d="M46.317,157.663a2.591,2.591,0,0,1,.535-.563,2.738,2.738,0,0,1-1.873-1.21,2.537,2.537,0,0,1-.466-1.783,1.946,1.946,0,0,1,.892-1.41,2.028,2.028,0,0,1,1.924-.255,4.028,4.028,0,0,1,1.846,1.654l.661,1,.47-.313a1.382,1.382,0,0,0,.64-.889,1.548,1.548,0,0,0-.311-1.157,1.8,1.8,0,0,0-.887-.735.98.98,0,0,0-.915.076l-.684-1.029a1.7,1.7,0,0,1,1.076-.257,2.6,2.6,0,0,1,1.235.422,3.487,3.487,0,0,1,1.038,1.036,2.838,2.838,0,0,1,.561,1.963,2.24,2.24,0,0,1-1.019,1.555l-2.751,1.832a4.041,4.041,0,0,0-1.17,1.082l-.088.059Zm-.349-2.216a2.156,2.156,0,0,0,.855.747,1.8,1.8,0,0,0,1.062.195l1.227-.817-.534-.8q-1.25-1.88-2.349-1.147a1.115,1.115,0,0,0-.538.82,1.48,1.48,0,0,0,.277,1" transform="translate(-18.451 -62.497)" fill="#061728"/><path d="M65.079,175.991a1.773,1.773,0,0,0,1.146.405,1.405,1.405,0,0,0,1.046-.44l.908.724a2.221,2.221,0,0,1-1.065.654,2.789,2.789,0,0,1-1.371.043,3.016,3.016,0,0,1-1.29-.6,2.96,2.96,0,0,1-1.213-2.221,3.9,3.9,0,0,1,.993-2.634l.128-.161a4.321,4.321,0,0,1,1.464-1.219,2.927,2.927,0,0,1,1.655-.3,3.144,3.144,0,0,1,1.611.708,2.885,2.885,0,0,1,1.119,1.818,2.586,2.586,0,0,1-.5,2l-.908-.724a1.693,1.693,0,0,0,.3-1.225,1.65,1.65,0,0,0-.637-1.081,1.721,1.721,0,0,0-1.555-.378,3.17,3.17,0,0,0-1.617,1.2l-.145.182a3.1,3.1,0,0,0-.792,1.814,1.73,1.73,0,0,0,.724,1.436" transform="translate(-26.225 -70.553)" fill="#061728"/><path d="M89.672,190.508a2.576,2.576,0,0,1,.1-.769,2.742,2.742,0,0,1-2.226.113,2.542,2.542,0,0,1-1.419-1.177,1.944,1.944,0,0,1-.1-1.666,2.034,2.034,0,0,1,1.413-1.33,4.018,4.018,0,0,1,2.463.265l1.118.421.2-.529a1.382,1.382,0,0,0,0-1.1,1.544,1.544,0,0,0-.928-.756,1.786,1.786,0,0,0-1.148-.077.973.973,0,0,0-.7.595l-1.157-.436a1.7,1.7,0,0,1,.723-.838,2.6,2.6,0,0,1,1.248-.378,3.494,3.494,0,0,1,1.448.232,2.846,2.846,0,0,1,1.6,1.267,2.239,2.239,0,0,1,.081,1.857l-1.164,3.1a4.057,4.057,0,0,0-.318,1.562l-.037.1Zm-1.578-1.594a2.152,2.152,0,0,0,1.13.105,1.8,1.8,0,0,0,.975-.462l.52-1.38-.9-.339q-2.112-.8-2.578.441a1.117,1.117,0,0,0,.043.981,1.47,1.47,0,0,0,.811.653" transform="translate(-35.619 -75.786)" fill="#061728"/><path d="M112.866,189.695a4.211,4.211,0,0,1,.918-2.615,2.664,2.664,0,0,1,4.051.064l.191-3.74,1.226.063-.519,10.186-1.127-.058-.02-.772a2.5,2.5,0,0,1-2.095.8,2.457,2.457,0,0,1-1.979-1.125,4.263,4.263,0,0,1-.65-2.707Zm1.219.2a3.186,3.186,0,0,0,.407,1.936,1.629,1.629,0,0,0,1.356.762,1.794,1.794,0,0,0,1.758-.961l.169-3.3a1.808,1.808,0,0,0-1.639-1.1,1.637,1.637,0,0,0-1.44.625,3.5,3.5,0,0,0-.61,2.036" transform="translate(-46.801 -76.018)" fill="#061728"/><path d="M143.748,192.3a3.136,3.136,0,0,1-2.547-.282,3.555,3.555,0,0,1-1.575-2.223l-.061-.217a4.316,4.316,0,0,1-.123-1.949,3.2,3.2,0,0,1,.744-1.574,2.884,2.884,0,0,1,1.4-.887,2.691,2.691,0,0,1,2.346.3,4,4,0,0,1,1.461,2.334l.139.492-4.684,1.316a2.547,2.547,0,0,0,1.06,1.484,1.949,1.949,0,0,0,1.632.222,2.146,2.146,0,0,0,.989-.553,2.767,2.767,0,0,0,.569-.891l.88.359a3.015,3.015,0,0,1-2.232,2.069m-1.888-6.16a1.639,1.639,0,0,0-1.056.859,2.635,2.635,0,0,0-.19,1.629l3.463-.973-.025-.09a2.336,2.336,0,0,0-.877-1.261,1.542,1.542,0,0,0-1.315-.165" transform="translate(-57.803 -76.694)" fill="#061728"/><path d="M162.3,173.86l.5.621a2.655,2.655,0,0,1,1.162-2.014,2.055,2.055,0,0,1,2.337-.289,2.7,2.7,0,0,1,.253-1.227,2.747,2.747,0,0,1,.9-1.063q1.9-1.4,3.421.587l2.856,3.873-.988.73-2.814-3.816a1.652,1.652,0,0,0-.966-.717,1.547,1.547,0,0,0-1.178.395,1.626,1.626,0,0,0-.671,1,1.662,1.662,0,0,0,.231,1.2l2.83,3.836-.994.733-2.794-3.788a1.369,1.369,0,0,0-2.163-.35,1.645,1.645,0,0,0-.72,1.81l3.114,4.221-.988.729-4.264-5.78Z" transform="translate(-66.921 -70.177)" fill="#061728"/><path d="M190.619,154.257l-3.569-4.364.724-1.1,5.327,6.982a2.282,2.282,0,0,1,.32,2.767l-.145.183-.325.335-.831-.549.206-.264a1.633,1.633,0,0,0,.325-.95,1.831,1.831,0,0,0-.454-.988l-.459-.63L184.4,153.9l.739-1.119Z" transform="translate(-76.473 -61.674)" fill="#061728"/><path d="M126.586,245.847l-4.892-1.722-5.289,1.722V226.472h10.182Z" transform="translate(-48.274 -93.87)" fill="#fff"/><path d="M115.99,246.018a.586.586,0,0,1-.585-.586V226.058a.586.586,0,0,1,.585-.586h10.182a.586.586,0,0,1,.585.586v19.375a.585.585,0,0,1-.78.552l-4.706-1.656-5.1,1.661a.587.587,0,0,1-.181.029m.585-19.375v17.983l4.523-1.473a.584.584,0,0,1,.375,0l4.113,1.448V226.643Z" transform="translate(-47.86 -93.456)" fill="#1d1d1b"/><path d="M118.156,209.41l3.4-1.391,1.714,3.255,3.5,1.124-.778,3.6,1.961,3.113-2.907,2.254-.5,3.645-3.674-.142-2.724,2.472-2.724-2.472-3.674.142-.5-3.645-2.907-2.254,1.961-3.113-.778-3.6,3.5-1.124,1.714-3.255Z" transform="translate(-44.935 -86.221)" fill="#fff"/><path d="M117.742,227.506a.581.581,0,0,1-.393-.152l-2.548-2.312-3.435.133a.592.592,0,0,1-.6-.505l-.466-3.409-2.717-2.107a.585.585,0,0,1-.137-.775l1.833-2.911-.727-3.362a.585.585,0,0,1,.393-.682l3.274-1.05,1.6-3.044a.585.585,0,0,1,.739-.269l3.184,1.3,3.183-1.3a.584.584,0,0,1,.738.269l1.6,3.044,3.275,1.05a.585.585,0,0,1,.394.682l-.728,3.362,1.834,2.911a.586.586,0,0,1-.137.775l-2.717,2.107-.467,3.408a.588.588,0,0,1-.6.506l-3.436-.133-2.547,2.312a.584.584,0,0,1-.393.152m-2.724-3.643a.583.583,0,0,1,.393.152l2.331,2.115,2.331-2.115a.578.578,0,0,1,.415-.151l3.145.122.426-3.119a.584.584,0,0,1,.221-.383l2.487-1.929-1.678-2.663a.583.583,0,0,1-.077-.436l.666-3.077-3-.961a.582.582,0,0,1-.339-.285l-1.467-2.785-2.914,1.19a.589.589,0,0,1-.442,0l-2.913-1.19-1.467,2.785a.588.588,0,0,1-.339.285l-3,.961.665,3.077a.586.586,0,0,1-.077.436l-1.677,2.663,2.487,1.929a.584.584,0,0,1,.221.383l.426,3.119,3.145-.122h.023" transform="translate(-44.521 -85.807)" fill="#1d1d1b"/><path d="M126.524,221.059a4.878,4.878,0,1,1-4.878-4.88,4.88,4.88,0,0,1,4.878,4.88" transform="translate(-48.425 -89.604)" fill="#fff"/><path d="M121.231,226.11a5.465,5.465,0,1,1,5.463-5.465,5.47,5.47,0,0,1-5.463,5.465m0-9.76a4.294,4.294,0,1,0,4.293,4.295,4.3,4.3,0,0,0-4.293-4.295" transform="translate(-48.01 -89.189)" fill="#1d1d1b"/><path d="M161.777,209.642l-.016-.586a47.124,47.124,0,0,0,28.7-10.776,44.762,44.762,0,0,0,15.275-25.354l.574.117a45.353,45.353,0,0,1-15.474,25.688,47.709,47.709,0,0,1-29.054,10.912" transform="translate(-67.084 -71.676)"/><path d="M186.861,222.566c-.882,1.886-1.978,2.183-2.924,1.685s-1.386-1.6-.5-3.489,3.7-3.34,3.7-3.34.612,3.259-.27,5.145" transform="translate(-75.874 -90.119)" fill="#fff"/><path d="M184.54,224.551a2.031,2.031,0,0,1-.946-.247c-.589-.311-1.832-1.309-.633-3.873.914-1.954,3.711-3.415,3.83-3.476a.293.293,0,0,1,.422.206c.025.137.619,3.374-.293,5.323a3.439,3.439,0,0,1-1.813,1.974,1.773,1.773,0,0,1-.567.093m2.16-6.874a8.515,8.515,0,0,0-3.209,3c-.5,1.064-.838,2.468.375,3.106a1.306,1.306,0,0,0,1.053.118,2.949,2.949,0,0,0,1.469-1.667,9.426,9.426,0,0,0,.311-4.559" transform="translate(-75.667 -89.912)"/><path d="M189.346,230.656c-1.927-.535-2.859.142-3.124,1.223s.238,2.156,2.165,2.69,4.816-.754,4.816-.754-1.93-2.625-3.857-3.16" transform="translate(-77.202 -95.527)" fill="#fff"/><path d="M189.246,234.785a4.294,4.294,0,0,1-1.141-.141c-2.633-.731-2.535-2.371-2.37-3.042a2.049,2.049,0,0,1,.938-1.329,3.276,3.276,0,0,1,2.548-.107c2,.556,3.933,3.158,4.014,3.269a.293.293,0,0,1-.116.441,11.068,11.068,0,0,1-3.872.909m-1.325-4.232a1.857,1.857,0,0,0-.953.225,1.458,1.458,0,0,0-.665.963c-.269,1.1.408,1.909,1.959,2.339a7.985,7.985,0,0,0,4.267-.6c-.56-.688-2.034-2.356-3.465-2.753a4.334,4.334,0,0,0-1.143-.177" transform="translate(-76.997 -95.319)"/><path d="M209.493,208.765c-.44,2.053-1.438,2.614-2.468,2.363s-1.7-1.216-1.261-3.27,2.854-4.166,2.854-4.166,1.315,3.019.875,5.073" transform="translate(-85.276 -84.428)" fill="#fff"/><path d="M207.262,211.269a2.147,2.147,0,0,1-.513-.063c-.644-.156-2.077-.822-1.478-3.616.455-2.124,2.845-4.236,2.947-4.325a.293.293,0,0,1,.257-.065.29.29,0,0,1,.2.169c.055.126,1.347,3.13.893,5.251a3.532,3.532,0,0,1-1.334,2.372,1.812,1.812,0,0,1-.976.278m1.037-7.276a8.851,8.851,0,0,0-2.455,3.72c-.248,1.158-.268,2.6,1.044,2.924a1.31,1.31,0,0,0,1.04-.142,3.048,3.048,0,0,0,1.073-2,9.383,9.383,0,0,0-.7-4.5m.988,4.565h0Z" transform="translate(-85.069 -84.221)"/><path d="M213.211,216.321c-1.991-.043-2.746.847-2.764,1.964s.707,2.039,2.7,2.082,4.511-1.926,4.511-1.926-2.455-2.077-4.446-2.12" transform="translate(-87.275 -89.662)" fill="#fff"/><path d="M213,220.452h-.07c-2.727-.059-3-1.683-2.984-2.379a2.1,2.1,0,0,1,.62-1.524,3.317,3.317,0,0,1,2.442-.727c2.071.045,4.525,2.1,4.628,2.188a.293.293,0,0,1-.009.454c-.1.082-2.569,1.989-4.627,1.989m-.138-4.048a2.664,2.664,0,0,0-1.89.565,1.516,1.516,0,0,0-.441,1.112c-.023,1.431,1.3,1.76,2.411,1.784a8.075,8.075,0,0,0,4.022-1.643c-.7-.53-2.494-1.785-3.969-1.817h-.133" transform="translate(-87.067 -89.455)"/><path d="M225.729,189.918c-.018,2.107-.881,2.878-1.937,2.865s-1.905-.809-1.887-2.915,1.953-4.715,1.953-4.715,1.889,2.658,1.871,4.765" transform="translate(-92.027 -76.744)" fill="#fff"/><path d="M223.611,192.868h-.03c-.663-.009-2.2-.339-2.176-3.21.019-2.177,1.929-4.777,2.01-4.886a.346.346,0,0,1,.238-.118.3.3,0,0,1,.236.123c.079.112,1.943,2.76,1.924,4.937a3.614,3.614,0,0,1-.83,2.618,1.915,1.915,0,0,1-1.372.537m.034-7.4a9.138,9.138,0,0,0-1.655,4.195c-.01,1.185.259,2.6,1.6,2.62a1.313,1.313,0,0,0,.986-.37,3.129,3.129,0,0,0,.654-2.2l.293,0-.293,0a9.226,9.226,0,0,0-1.583-4.24" transform="translate(-91.819 -76.537)"/><path d="M230.437,196.461c-1.953.4-2.512,1.444-2.306,2.54s1.1,1.836,3.052,1.431,4.02-2.9,4.02-2.9-2.813-1.48-4.767-1.076" transform="translate(-94.592 -81.402)" fill="#fff"/><path d="M229.978,200.631a2.594,2.594,0,0,1-1.474-.393,2.077,2.077,0,0,1-.867-1.389c-.128-.682-.138-2.328,2.534-2.881,2.034-.42,4.843,1.041,4.962,1.1a.293.293,0,0,1,.089.446c-.087.105-2.156,2.575-4.186,3a5.275,5.275,0,0,1-1.058.118m.313-4.089c-1.094.226-2.342.792-2.078,2.2a1.491,1.491,0,0,0,.617,1.011,2.752,2.752,0,0,0,2.088.187c1.451-.3,3.01-1.864,3.6-2.513a8.045,8.045,0,0,0-4.232-.884m-.06-.287h0Z" transform="translate(-94.386 -81.195)"/><path d="M238.969,165.635c-.551,2.023-1.578,2.522-2.593,2.209s-1.632-1.317-1.082-3.34,3.076-3.985,3.076-3.985,1.15,3.093.6,5.116" transform="translate(-97.494 -66.533)" fill="#fff"/><path d="M236.711,168.015a2.123,2.123,0,0,1-.627-.1c-.634-.195-2.027-.946-1.278-3.7.57-2.093,3.073-4.057,3.179-4.14a.292.292,0,0,1,.454.129c.048.13,1.176,3.206.607,5.3a3.51,3.51,0,0,1-1.46,2.286,1.794,1.794,0,0,1-.875.223m1.312-7.2a8.773,8.773,0,0,0-2.653,3.563c-.31,1.141-.409,2.586.886,2.984a1.3,1.3,0,0,0,1.048-.078,3.025,3.025,0,0,0,1.177-1.927,9.409,9.409,0,0,0-.458-4.541" transform="translate(-97.287 -66.326)"/><path d="M49.135,209.642A47.71,47.71,0,0,1,20.08,198.73,45.353,45.353,0,0,1,4.606,173.043l.574-.117A44.762,44.762,0,0,0,20.455,198.28a47.124,47.124,0,0,0,28.7,10.776Z" transform="translate(-1.91 -71.676)"/><path d="M52.509,222.566c.882,1.886,1.978,2.183,2.924,1.685s1.386-1.6.5-3.489-3.7-3.34-3.7-3.34-.612,3.259.27,5.145" transform="translate(-21.578 -90.119)" fill="#fff"/><path d="M54.415,224.55a1.769,1.769,0,0,1-.567-.093,3.431,3.431,0,0,1-1.813-1.974c-.912-1.949-.318-5.186-.293-5.323a.293.293,0,0,1,.422-.206c.119.061,2.915,1.523,3.83,3.476,1.2,2.564-.043,3.562-.633,3.873a2.033,2.033,0,0,1-.946.247m-2.16-6.874a9.425,9.425,0,0,0,.311,4.559,2.948,2.948,0,0,0,1.47,1.667,1.3,1.3,0,0,0,1.054-.117c1.212-.638.873-2.041.375-3.106a8.5,8.5,0,0,0-3.209-3" transform="translate(-21.37 -89.912)"/><path d="M48.136,230.656c1.927-.535,2.859.142,3.124,1.223s-.238,2.156-2.165,2.69-4.816-.754-4.816-.754,1.93-2.625,3.857-3.16" transform="translate(-18.363 -95.527)" fill="#fff"/><path d="M47.824,234.784a11.065,11.065,0,0,1-3.872-.909.292.292,0,0,1-.116-.441c.081-.11,2.012-2.713,4.014-3.268a3.274,3.274,0,0,1,2.548.107,2.053,2.053,0,0,1,.938,1.329c.164.672.262,2.312-2.371,3.042a4.263,4.263,0,0,1-1.141.141m-3.283-1.3a7.983,7.983,0,0,0,4.267.6c1.55-.43,2.228-1.239,1.958-2.339a1.458,1.458,0,0,0-.665-.963,2.741,2.741,0,0,0-2.1-.048c-1.431.4-2.905,2.065-3.465,2.753" transform="translate(-18.156 -95.319)"/><path d="M30.178,208.765c.44,2.053,1.438,2.614,2.468,2.363s1.7-1.216,1.262-3.27-2.854-4.166-2.854-4.166-1.315,3.019-.875,5.073" transform="translate(-12.478 -84.428)" fill="#fff"/><path d="M31.995,211.269a1.809,1.809,0,0,1-.977-.278,3.533,3.533,0,0,1-1.334-2.372c-.454-2.121.838-5.124.893-5.251a.293.293,0,0,1,.461-.1c.1.089,2.493,2.2,2.948,4.325.6,2.793-.835,3.459-1.478,3.616a2.174,2.174,0,0,1-.512.063M30.256,208.5a3.05,3.05,0,0,0,1.073,2,1.307,1.307,0,0,0,1.04.141c1.313-.319,1.292-1.766,1.045-2.924a8.846,8.846,0,0,0-2.455-3.72,9.4,9.4,0,0,0-.7,4.5" transform="translate(-12.27 -84.221)"/><path d="M24.156,216.321c1.991-.043,2.746.847,2.764,1.964s-.707,2.039-2.7,2.082-4.511-1.926-4.511-1.926,2.455-2.077,4.446-2.12" transform="translate(-8.174 -89.662)" fill="#fff"/><path d="M23.95,220.452c-2.057,0-4.522-1.906-4.627-1.988a.292.292,0,0,1-.009-.454c.1-.088,2.558-2.144,4.628-2.189a3.322,3.322,0,0,1,2.443.727,2.106,2.106,0,0,1,.62,1.525c.011.7-.257,2.32-2.984,2.379H23.95m-3.964-2.229c.714.5,2.538,1.678,4.022,1.643,1.113-.024,2.435-.353,2.411-1.784a1.514,1.514,0,0,0-.441-1.112,2.784,2.784,0,0,0-2.024-.564c-1.476.032-3.273,1.286-3.969,1.817m3.962-2.11h0Z" transform="translate(-7.967 -89.455)"/><path d="M14.037,189.918c.018,2.107.881,2.878,1.937,2.865s1.905-.809,1.887-2.915-1.953-4.715-1.953-4.715-1.889,2.658-1.871,4.765" transform="translate(-5.821 -76.744)" fill="#fff"/><path d="M15.739,192.869a1.915,1.915,0,0,1-1.372-.537,3.614,3.614,0,0,1-.83-2.618c-.019-2.177,1.845-4.825,1.925-4.937a.293.293,0,0,1,.235-.123.285.285,0,0,1,.238.118c.081.109,1.991,2.709,2.01,4.886.025,2.871-1.513,3.2-2.176,3.21h-.031m-1.617-3.16a3.129,3.129,0,0,0,.654,2.2,1.319,1.319,0,0,0,.987.37c1.339-.018,1.608-1.434,1.6-2.62a9.138,9.138,0,0,0-1.655-4.195,9.226,9.226,0,0,0-1.583,4.24" transform="translate(-5.614 -76.537)"/><path d="M7,196.461c1.953.4,2.512,1.444,2.306,2.54s-1.1,1.836-3.052,1.431-4.02-2.9-4.02-2.9,2.813-1.48,4.767-1.076" transform="translate(-0.926 -81.402)" fill="#fff"/><path d="M7.044,200.631a5.234,5.234,0,0,1-1.058-.118c-2.03-.42-4.1-2.89-4.186-2.995a.293.293,0,0,1,.089-.446c.118-.063,2.93-1.524,4.962-1.1,2.671.553,2.662,2.2,2.534,2.881a2.079,2.079,0,0,1-.867,1.389,2.6,2.6,0,0,1-1.474.392M2.5,197.426c.6.649,2.156,2.213,3.6,2.514a2.753,2.753,0,0,0,2.087-.187,1.487,1.487,0,0,0,.617-1.011c.265-1.408-.984-1.973-2.078-2.2a8.048,8.048,0,0,0-4.232.884" transform="translate(-0.718 -81.195)"/><path d="M.65,165.635c.551,2.023,1.578,2.522,2.593,2.209s1.632-1.317,1.082-3.34-3.076-3.985-3.076-3.985-1.15,3.093-.6,5.116" transform="translate(-0.208 -66.533)" fill="#fff"/><path d="M2.494,168.015a1.8,1.8,0,0,1-.876-.223A3.512,3.512,0,0,1,.16,165.505c-.569-2.09.558-5.165.607-5.3a.292.292,0,0,1,.454-.129c.107.083,2.609,2.046,3.179,4.14.749,2.751-.645,3.5-1.279,3.7a2.119,2.119,0,0,1-.626.1m-1.77-2.663A3.023,3.023,0,0,0,1.9,167.279a1.3,1.3,0,0,0,1.047.078c1.3-.4,1.2-1.843.886-2.984a8.773,8.773,0,0,0-2.653-3.563,9.417,9.417,0,0,0-.458,4.541" transform="translate(0 -66.326)"/></g></svg>