<svg width="87" height="113" viewBox="0 0 87 113" fill="none" xmlns="http://www.w3.org/2000/svg">
<path d="M43.351 0.118164C19.5727 0.145139 0.312711 19.4052 0.285736 43.1835C0.299223 47.9445 1.06801 52.6786 2.56511 57.1969C3.63062 60.3394 7.05642 62.0254 10.199 60.9599C13.3416 59.8943 15.0275 56.4685 13.962 53.326C12.7076 49.7788 12.1277 46.0293 12.2491 42.2798C12.7211 25.1103 27.0178 11.5555 44.1872 12.0275C61.3567 12.4996 74.9115 26.7962 74.4395 43.9657C73.9944 60.1101 61.2893 73.2199 45.1718 74.1775C45.1718 74.1775 39.1295 74.5147 36.1757 74.9733C34.6921 75.2026 33.5592 75.4318 32.7634 75.5397C32.5206 75.6072 32.2644 75.4723 32.1969 75.2295C32.17 75.1486 32.17 75.0542 32.1969 74.9598L33.222 69.9425L38.6844 44.3164C39.3318 41.0929 37.2547 37.9638 34.0312 37.3164C30.8752 36.6825 27.7731 38.6787 27.0582 41.8077C27.0582 41.8077 13.6113 104.47 13.5034 105.158C12.8155 108.368 14.8521 111.524 18.0621 112.225C21.2722 112.913 24.4282 110.877 25.1295 107.667C25.2509 106.979 27.0717 98.6706 27.0717 98.6706C28.3935 92.426 33.5052 87.6784 39.8308 86.8287C41.193 86.5994 46.5475 86.2622 46.5475 86.2622C70.2989 84.401 88.0348 63.6439 86.1735 39.8925C84.4202 17.5169 65.7941 0.226056 43.351 0.131644V0.118164Z" fill="black"/>
<path d="M56.1236 97.3354C51.9021 96.3373 47.667 98.9538 46.6555 103.175C45.6574 107.397 48.2739 111.632 52.4955 112.644C52.6304 112.671 52.7652 112.698 52.8866 112.724C57.0677 113.669 61.2084 111.039 62.1525 106.857C62.166 106.79 62.1795 106.709 62.193 106.642C63.0427 102.407 60.3317 98.266 56.1101 97.3354" fill="black"/>
</svg>
